<?xml version="1.0" encoding="utf-8"?>
<!-- Generator: Adobe Illustrator 23.0.2, SVG Export Plug-In . SVG Version: 6.00 Build 0)  -->
<svg version="1.1" id="Layer_1" xmlns="http://www.w3.org/2000/svg" xmlns:xlink="http://www.w3.org/1999/xlink" x="0px" y="0px"
	 viewBox="0 0 374.79 382.42" style="enable-background:new 0 0 374.79 382.42;" xml:space="preserve">
<style type="text/css">
	.st0{fill:#E5E014;stroke:#000000;stroke-miterlimit:10;}
</style>
<g>
	<circle class="st0" cx="188.06" cy="191.11" r="62.04"/>
	<path class="st0" d="M133.47,129.67l7.65-5.79c0,0-48.02-59.94-81.6-74.92L133.47,129.67z"/>
	<path class="st0" d="M169.62,110.98l9.59-0.26c0,0-4.25-76.69-22.87-108.39L169.62,110.98z"/>
	<path class="st0" d="M215.06,116.32l8.34,4.74c0,0,36.09-67.8,36.59-104.56L215.06,116.32z"/>
	<path class="st0" d="M248.62,141.4l6.05,7.45c0,0,58.22-50.09,72.01-84.17L248.62,141.4z"/>
	<path class="st0" d="M261.65,174.01l2.53,9.26c0,0,73.48-22.34,99.85-47.96L261.65,174.01z"/>
	<path class="st0" d="M263.05,208.11l-1.4,9.5c0,0,76.27,9.05,110.71-3.82L263.05,208.11z"/>
	<path class="st0" d="M249.02,240.88l-5.76,7.68c0,0,62.7,44.35,99.11,49.48L249.02,240.88z"/>
	<path class="st0" d="M214.78,269.46l-9.37,2.1c0,0,18.86,74.45,43.21,102L214.78,269.46z"/>
	<path class="st0" d="M169.11,271.84l-9.3-2.38c0,0-16.95,74.91-7.74,110.5L169.11,271.84z"/>
	<path class="st0" d="M128.15,249.65l-7.45-6.05c0,0-46.7,60.98-53.2,97.16L128.15,249.65z"/>
	<path class="st0" d="M106.02,213.17l-3.18-9.05c0,0-71.72,27.48-96.21,54.9L106.02,213.17z"/>
	<path class="st0" d="M106.33,170.04l3.87-8.78c0,0-71.13-28.96-107.75-25.69L106.33,170.04z"/>
</g>
</svg>
